<svg width="34" height="41" viewBox="0 0 34 41" fill="none" xmlns="http://www.w3.org/2000/svg">
<path d="M32 22C32.8284 22 33.5 21.3284 33.5 20.5C33.5 19.6716 32.8284 19 32 19V22ZM10.3077 20.5L9.24593 19.4404C8.66161 20.026 8.66161 20.974 9.24593 21.5596L10.3077 20.5ZM19.2156 13.6971C19.8008 13.1107 19.7998 12.1609 19.2134 11.5757C18.627 10.9906 17.6773 10.9915 17.0921 11.5779L19.2156 13.6971ZM17.0921 29.4221C17.6773 30.0085 18.627 30.0094 19.2134 29.4243C19.7998 28.8391 19.8008 27.8893 19.2156 27.3029L17.0921 29.4221ZM30.0385 12.6375C30.0385 13.4659 30.71 14.1375 31.5385 14.1375C32.3669 14.1375 33.0385 13.4659 33.0385 12.6375H30.0385ZM33.0385 28.3625C33.0385 27.5341 32.3669 26.8625 31.5385 26.8625C30.71 26.8625 30.0385 27.5341 30.0385 28.3625H33.0385ZM32 19H10.3077V22H32V19ZM11.3695 21.5596L19.2156 13.6971L17.0921 11.5779L9.24593 19.4404L11.3695 21.5596ZM9.24593 21.5596L17.0921 29.4221L19.2156 27.3029L11.3695 19.4404L9.24593 21.5596ZM5.69231 3.5H27.8462V0.5H5.69231V3.5ZM27.8462 37.5H5.69231V40.5H27.8462V37.5ZM3.5 35.3V5.7H0.5V35.3H3.5ZM30.0385 5.7V12.6375H33.0385V5.7H30.0385ZM30.0385 28.3625V35.3H33.0385V28.3625H30.0385ZM5.69231 37.5C4.48447 37.5 3.5 36.518 3.5 35.3H0.5C0.5 38.1689 2.82173 40.5 5.69231 40.5V37.5ZM27.8462 40.5C30.7167 40.5 33.0385 38.1689 33.0385 35.3H30.0385C30.0385 36.518 29.054 37.5 27.8462 37.5V40.5ZM27.8462 3.5C29.054 3.5 30.0385 4.48203 30.0385 5.7H33.0385C33.0385 2.83106 30.7167 0.5 27.8462 0.5V3.5ZM5.69231 0.5C2.82173 0.5 0.5 2.83107 0.5 5.7H3.5C3.5 4.48203 4.48447 3.5 5.69231 3.5V0.5Z" fill="white"/>
</svg>
