<svg width="48" height="48" viewBox="0 0 48 48" fill="none" xmlns="http://www.w3.org/2000/svg">
<path d="M3 17C3 16.4477 3.44772 16 4 16H39C41.7614 16 44 18.2386 44 21V38C44 40.7614 41.7614 43 39 43H8C5.23858 43 3 40.7614 3 38V17Z" stroke="white" stroke-width="3"/>
<path d="M34.5 30C34.5 27.5147 36.5147 25.5 39 25.5H43.5V34.5H39C36.5147 34.5 34.5 32.4853 34.5 30Z" stroke="white" stroke-width="3"/>
<path d="M4 16H39C39 10.1187 33.2121 5.98443 27.6486 7.89189L4 16Z" stroke="white" stroke-width="3"/>
</svg>
