<svg width="46" height="46" viewBox="0 0 46 46" fill="none" xmlns="http://www.w3.org/2000/svg">
<circle cx="23" cy="23" r="21.5" stroke="white" stroke-width="3"/>
<path d="M23.009 30.159C22.635 30.159 22.327 30.038 22.085 29.796C21.843 29.554 21.722 29.235 21.722 28.839C21.722 27.959 21.931 27.013 22.349 26.001C22.789 24.989 23.394 24.12 24.164 23.394C24.846 22.756 25.495 22.14 26.111 21.546C26.727 20.952 27.222 20.292 27.596 19.566C27.992 18.84 28.19 17.927 28.19 16.827C28.19 15.969 27.981 15.188 27.563 14.484C27.145 13.758 26.551 13.186 25.781 12.768C25.033 12.35 24.153 12.141 23.141 12.141C21.491 12.141 20.193 12.636 19.247 13.626C18.301 14.594 17.828 15.859 17.828 17.421C17.828 17.795 17.707 18.103 17.465 18.345C17.245 18.565 16.948 18.675 16.574 18.675C16.2 18.675 15.892 18.565 15.65 18.345C15.408 18.103 15.287 17.795 15.287 17.421C15.287 15.903 15.617 14.572 16.277 13.428C16.937 12.262 17.85 11.349 19.016 10.689C20.204 10.029 21.579 9.699 23.141 9.699C24.593 9.699 25.891 10.018 27.035 10.656C28.179 11.272 29.081 12.13 29.741 13.23C30.401 14.308 30.731 15.551 30.731 16.959C30.731 18.191 30.511 19.236 30.071 20.094C29.631 20.952 29.048 21.744 28.322 22.47C27.618 23.174 26.837 23.922 25.979 24.714C25.297 25.33 24.846 26.023 24.626 26.793C24.406 27.563 24.296 28.245 24.296 28.839C24.296 29.235 24.175 29.554 23.933 29.796C23.691 30.038 23.383 30.159 23.009 30.159ZM23.009 36C22.459 36 21.997 35.813 21.623 35.439C21.271 35.065 21.095 34.614 21.095 34.086C21.095 33.536 21.282 33.074 21.656 32.7C22.03 32.326 22.481 32.139 23.009 32.139C23.537 32.139 23.988 32.326 24.362 32.7C24.758 33.074 24.956 33.536 24.956 34.086C24.956 34.614 24.758 35.065 24.362 35.439C23.988 35.813 23.537 36 23.009 36Z" fill="white"/>
</svg>
