<svg width="46" height="46" viewBox="0 0 46 46" fill="none" xmlns="http://www.w3.org/2000/svg">
<circle cx="23" cy="23" r="21.5" stroke="white" stroke-width="3"/>
<path d="M37.45 36.85L18 25.15C17.3 24.75 16.95 24.1667 16.95 23.4C16.95 22.7667 17.3 22.1833 18 21.65L37.45 9.95C38.0833 9.65 38.7167 9.65 39.35 9.95C40.0167 10.2167 40.35 10.7333 40.35 11.5C40.35 12.2667 40.0333 12.85 39.4 13.25L22.5 23.35L39.4 33.45C40.0333 33.8833 40.35 34.45 40.35 35.15C40.35 35.9167 40 36.4833 39.3 36.85C38.6333 37.2167 38.0167 37.2167 37.45 36.85Z" fill="white"/>
</svg>
